<svg xmlns="http://www.w3.org/2000/svg" xmlns:xlink="http://www.w3.org/1999/xlink" width="1080" zoomAndPan="magnify" viewBox="0 0 810 809.999993" height="1080" preserveAspectRatio="xMidYMid meet" version="1.0"><defs><clipPath id="c29622ac8c"><path d="M 0 147.320312 L 810 147.320312 L 810 662.570312 L 0 662.570312 Z M 0 147.320312 " clip-rule="nonzero"/></clipPath></defs><rect x="-81" width="972" fill="#ffffff" y="-80.999999" height="971.999992" fill-opacity="1"/><rect x="-81" width="972" fill="#ffffff" y="-80.999999" height="971.999992" fill-opacity="1"/><g clip-path="url(#c29622ac8c)"><path fill="#cb6ce6" d="M 101.308594 147.320312 C 45.726562 147.320312 0.078125 192.96875 0.078125 248.550781 L 0.078125 561.445312 C 0.078125 617.023438 45.726562 662.675781 101.308594 662.675781 L 129.707031 662.675781 C 130.621094 662.6875 131.53125 662.65625 132.441406 662.578125 C 133.347656 662.5 134.253906 662.378906 135.148438 662.210938 C 136.046875 662.042969 136.933594 661.832031 137.808594 661.578125 C 138.683594 661.324219 139.546875 661.027344 140.394531 660.6875 C 141.238281 660.347656 142.066406 659.964844 142.875 659.542969 C 143.683594 659.121094 144.472656 658.660156 145.234375 658.160156 C 145.996094 657.65625 146.734375 657.121094 147.445312 656.546875 C 148.152344 655.976562 148.832031 655.367188 149.484375 654.726562 C 150.132812 654.085938 150.75 653.414062 151.332031 652.714844 C 151.917969 652.011719 152.464844 651.285156 152.972656 650.527344 C 153.484375 649.769531 153.957031 648.992188 154.390625 648.1875 C 154.824219 647.386719 155.21875 646.5625 155.570312 645.722656 C 155.921875 644.878906 156.230469 644.023438 156.5 643.152344 C 156.765625 642.277344 156.988281 641.394531 157.167969 640.5 C 157.347656 639.605469 157.484375 638.703125 157.574219 637.796875 C 157.664062 636.886719 157.710938 635.976562 157.710938 635.066406 C 157.710938 634.152344 157.664062 633.242188 157.574219 632.335938 C 157.484375 631.425781 157.347656 630.527344 157.167969 629.632812 C 156.988281 628.738281 156.765625 627.851562 156.5 626.980469 C 156.230469 626.109375 155.921875 625.25 155.570312 624.410156 C 155.21875 623.566406 154.824219 622.746094 154.390625 621.941406 C 153.957031 621.140625 153.484375 620.359375 152.972656 619.605469 C 152.464844 618.847656 151.917969 618.121094 151.332031 617.417969 C 150.75 616.714844 150.132812 616.042969 149.484375 615.402344 C 148.832031 614.761719 148.152344 614.15625 147.445312 613.582031 C 146.734375 613.011719 145.996094 612.472656 145.234375 611.972656 C 144.472656 611.472656 143.683594 611.011719 142.875 610.589844 C 142.066406 610.167969 141.238281 609.785156 140.394531 609.445312 C 139.546875 609.105469 138.683594 608.808594 137.808594 608.554688 C 136.933594 608.296875 136.046875 608.085938 135.148438 607.921875 C 134.253906 607.753906 133.347656 607.632812 132.441406 607.554688 C 131.53125 607.476562 130.621094 607.445312 129.707031 607.457031 L 101.308594 607.457031 C 75.574219 607.457031 55.292969 587.179688 55.292969 561.445312 L 55.292969 248.550781 C 55.292969 222.8125 75.574219 202.535156 101.308594 202.535156 L 497.027344 202.535156 C 497.941406 202.546875 498.851562 202.515625 499.761719 202.4375 C 500.667969 202.359375 501.570312 202.238281 502.46875 202.070312 C 503.367188 201.90625 504.253906 201.695312 505.128906 201.4375 C 506.003906 201.183594 506.867188 200.886719 507.714844 200.546875 C 508.558594 200.207031 509.386719 199.824219 510.195312 199.402344 C 511.003906 198.980469 511.792969 198.519531 512.554688 198.019531 C 513.316406 197.519531 514.054688 196.980469 514.765625 196.410156 C 515.472656 195.835938 516.152344 195.230469 516.804688 194.589844 C 517.453125 193.949219 518.070312 193.277344 518.652344 192.574219 C 519.234375 191.875 519.78125 191.144531 520.292969 190.386719 C 520.804688 189.632812 521.277344 188.851562 521.710938 188.050781 C 522.144531 187.246094 522.539062 186.425781 522.890625 185.582031 C 523.242188 184.742188 523.550781 183.882812 523.820312 183.011719 C 524.085938 182.140625 524.308594 181.257812 524.488281 180.363281 C 524.667969 179.46875 524.804688 178.566406 524.894531 177.65625 C 524.984375 176.75 525.027344 175.839844 525.027344 174.925781 C 525.027344 174.015625 524.984375 173.105469 524.894531 172.195312 C 524.804688 171.289062 524.667969 170.386719 524.488281 169.492188 C 524.308594 168.597656 524.085938 167.714844 523.820312 166.84375 C 523.550781 165.96875 523.242188 165.113281 522.890625 164.269531 C 522.539062 163.429688 522.144531 162.605469 521.710938 161.804688 C 521.277344 161 520.804688 160.222656 520.292969 159.464844 C 519.78125 158.710938 519.234375 157.980469 518.652344 157.28125 C 518.070312 156.578125 517.453125 155.90625 516.804688 155.265625 C 516.152344 154.625 515.472656 154.019531 514.765625 153.445312 C 514.054688 152.871094 513.316406 152.335938 512.554688 151.835938 C 511.792969 151.335938 511.003906 150.875 510.195312 150.449219 C 509.386719 150.027344 508.558594 149.648438 507.714844 149.308594 C 506.867188 148.96875 506.003906 148.667969 505.128906 148.414062 C 504.253906 148.160156 503.367188 147.949219 502.46875 147.78125 C 501.570312 147.613281 500.667969 147.492188 499.761719 147.414062 C 498.851562 147.339844 497.941406 147.304688 497.027344 147.320312 Z M 641.144531 147.320312 C 640.230469 147.304688 639.320312 147.339844 638.414062 147.414062 C 637.503906 147.492188 636.601562 147.613281 635.703125 147.78125 C 634.804688 147.949219 633.917969 148.160156 633.042969 148.414062 C 632.167969 148.667969 631.304688 148.96875 630.460938 149.308594 C 629.613281 149.648438 628.785156 150.027344 627.976562 150.449219 C 627.167969 150.875 626.382812 151.335938 625.617188 151.835938 C 624.855469 152.335938 624.117188 152.871094 623.410156 153.445312 C 622.699219 154.019531 622.019531 154.625 621.371094 155.265625 C 620.71875 155.90625 620.101562 156.578125 619.519531 157.28125 C 618.9375 157.980469 618.390625 158.710938 617.878906 159.464844 C 617.367188 160.222656 616.894531 161 616.460938 161.804688 C 616.027344 162.605469 615.636719 163.429688 615.28125 164.269531 C 614.929688 165.113281 614.621094 165.96875 614.355469 166.84375 C 614.085938 167.714844 613.863281 168.597656 613.683594 169.492188 C 613.503906 170.386719 613.371094 171.289062 613.277344 172.195312 C 613.1875 173.105469 613.144531 174.015625 613.144531 174.925781 C 613.144531 175.839844 613.1875 176.75 613.277344 177.65625 C 613.371094 178.566406 613.503906 179.46875 613.683594 180.363281 C 613.863281 181.257812 614.085938 182.140625 614.355469 183.011719 C 614.621094 183.882812 614.929688 184.742188 615.28125 185.582031 C 615.636719 186.425781 616.027344 187.246094 616.460938 188.050781 C 616.894531 188.851562 617.367188 189.632812 617.878906 190.386719 C 618.390625 191.144531 618.9375 191.875 619.519531 192.574219 C 620.101562 193.277344 620.71875 193.949219 621.371094 194.589844 C 622.019531 195.230469 622.699219 195.835938 623.410156 196.410156 C 624.117188 196.980469 624.855469 197.519531 625.617188 198.019531 C 626.382812 198.519531 627.167969 198.980469 627.976562 199.402344 C 628.785156 199.824219 629.613281 200.207031 630.460938 200.546875 C 631.304688 200.886719 632.167969 201.183594 633.042969 201.4375 C 633.917969 201.695312 634.804688 201.90625 635.703125 202.070312 C 636.601562 202.238281 637.503906 202.359375 638.414062 202.4375 C 639.320312 202.515625 640.230469 202.546875 641.144531 202.535156 L 708.691406 202.535156 C 734.425781 202.535156 754.707031 222.8125 754.707031 248.550781 L 754.707031 561.445312 C 754.707031 587.179688 734.425781 607.457031 708.691406 607.457031 L 264.40625 607.457031 C 263.492188 607.445312 262.582031 607.476562 261.671875 607.554688 C 260.765625 607.632812 259.863281 607.753906 258.964844 607.921875 C 258.066406 608.085938 257.179688 608.296875 256.304688 608.554688 C 255.429688 608.808594 254.566406 609.105469 253.71875 609.445312 C 252.875 609.785156 252.046875 610.167969 251.238281 610.589844 C 250.429688 611.011719 249.640625 611.472656 248.878906 611.972656 C 248.117188 612.472656 247.378906 613.011719 246.667969 613.582031 C 245.960938 614.15625 245.28125 614.761719 244.628906 615.402344 C 243.980469 616.042969 243.363281 616.714844 242.78125 617.417969 C 242.199219 618.121094 241.648438 618.847656 241.140625 619.605469 C 240.628906 620.359375 240.15625 621.140625 239.722656 621.941406 C 239.289062 622.746094 238.894531 623.566406 238.542969 624.410156 C 238.191406 625.25 237.882812 626.109375 237.613281 626.980469 C 237.347656 627.851562 237.125 628.738281 236.945312 629.632812 C 236.765625 630.527344 236.628906 631.425781 236.539062 632.335938 C 236.449219 633.242188 236.402344 634.152344 236.402344 635.066406 C 236.402344 635.976562 236.449219 636.886719 236.539062 637.796875 C 236.628906 638.703125 236.765625 639.605469 236.945312 640.5 C 237.125 641.394531 237.347656 642.277344 237.613281 643.152344 C 237.882812 644.023438 238.191406 644.878906 238.542969 645.722656 C 238.894531 646.5625 239.289062 647.386719 239.722656 648.1875 C 240.15625 648.992188 240.628906 649.769531 241.140625 650.527344 C 241.648438 651.285156 242.199219 652.011719 242.78125 652.714844 C 243.363281 653.414062 243.980469 654.085938 244.628906 654.726562 C 245.28125 655.367188 245.960938 655.976562 246.667969 656.546875 C 247.378906 657.121094 248.117188 657.660156 248.878906 658.160156 C 249.640625 658.660156 250.429688 659.121094 251.238281 659.542969 C 252.046875 659.964844 252.875 660.347656 253.71875 660.6875 C 254.566406 661.027344 255.429688 661.324219 256.304688 661.578125 C 257.179688 661.832031 258.066406 662.042969 258.964844 662.210938 C 259.863281 662.378906 260.765625 662.5 261.671875 662.578125 C 262.582031 662.65625 263.492188 662.6875 264.40625 662.675781 L 708.691406 662.675781 C 764.273438 662.675781 809.921875 617.023438 809.921875 561.445312 L 809.921875 248.550781 C 809.921875 192.96875 764.273438 147.320312 708.691406 147.320312 Z M 416.503906 331.375 C 391.140625 331.375 370.488281 352.023438 370.488281 377.386719 C 370.488281 402.75 391.140625 423.402344 416.503906 423.402344 L 432.609375 423.402344 C 437.6875 423.402344 441.8125 427.523438 441.8125 432.605469 C 441.8125 437.683594 437.6875 441.808594 432.609375 441.808594 L 412.511719 441.808594 C 406.21875 441.808594 401.042969 437.132812 399.609375 435.695312 C 392.410156 428.5 380.777344 428.5 373.582031 435.695312 C 366.382812 442.894531 366.382812 454.527344 373.582031 461.722656 C 378.660156 466.804688 392.617188 478.617188 412.511719 478.617188 L 432.609375 478.617188 C 457.972656 478.617188 478.621094 457.96875 478.621094 432.605469 C 478.621094 407.242188 457.972656 386.589844 432.609375 386.589844 L 416.503906 386.589844 C 411.421875 386.589844 407.300781 382.46875 407.300781 377.386719 C 407.300781 372.308594 411.421875 368.183594 416.503906 368.183594 L 432.609375 368.183594 C 438.203125 368.183594 442.582031 372.015625 442.601562 371.996094 C 449.796875 379.175781 461.433594 379.191406 468.628906 371.996094 C 475.824219 364.800781 475.824219 353.164062 468.628906 345.96875 C 467.136719 344.476562 453.425781 331.375 432.609375 331.375 Z M 561.445312 331.375 C 525.925781 331.375 497.027344 364.394531 497.027344 404.996094 C 497.027344 445.597656 525.925781 478.617188 561.445312 478.617188 C 572.214844 478.617188 582.214844 475.273438 591.140625 469.917969 L 594.449219 473.226562 C 598.035156 476.816406 602.75 478.617188 607.460938 478.617188 C 612.171875 478.617188 616.886719 476.816406 620.472656 473.226562 C 627.671875 466.03125 627.671875 454.394531 620.472656 447.199219 L 616.304688 443.03125 C 622.25 431.894531 625.867188 418.964844 625.867188 404.996094 C 625.867188 364.394531 596.96875 331.375 561.445312 331.375 Z M 662.675781 331.375 C 652.519531 331.375 644.273438 339.621094 644.273438 349.78125 L 644.273438 460.214844 C 644.273438 470.371094 652.519531 478.617188 662.675781 478.617188 L 717.894531 478.617188 C 728.054688 478.617188 736.300781 470.371094 736.300781 460.214844 C 736.300781 450.054688 728.054688 441.808594 717.894531 441.808594 L 681.082031 441.808594 L 681.082031 349.78125 C 681.082031 339.621094 672.835938 331.375 662.675781 331.375 Z M 109.828125 331.410156 C 107.960938 331.480469 106.078125 331.832031 104.257812 332.488281 C 96.96875 335.121094 92.105469 342.03125 92.105469 349.78125 L 92.105469 460.214844 C 92.105469 470.371094 100.351562 478.617188 110.511719 478.617188 C 120.671875 478.617188 128.917969 470.371094 128.917969 460.214844 L 128.917969 400.609375 L 142.398438 416.789062 C 149.390625 425.179688 163.660156 425.179688 170.652344 416.789062 L 184.132812 400.609375 L 184.132812 460.214844 C 184.132812 470.371094 192.378906 478.617188 202.539062 478.617188 C 212.699219 478.617188 220.945312 470.371094 220.945312 460.214844 L 220.945312 349.78125 C 220.945312 342.03125 216.082031 335.121094 208.792969 332.488281 C 201.542969 329.855469 193.378906 332.027344 188.410156 337.988281 L 156.523438 376.238281 L 124.640625 337.988281 C 120.910156 333.53125 115.425781 331.199219 109.828125 331.410156 Z M 561.445312 368.183594 C 576.410156 368.183594 589.054688 385.042969 589.054688 404.996094 C 589.054688 424.949219 576.410156 441.808594 561.445312 441.808594 C 546.484375 441.808594 533.839844 424.949219 533.839844 404.996094 C 533.839844 385.042969 546.484375 368.183594 561.445312 368.183594 Z M 256.570312 386.625 C 254.183594 386.777344 251.792969 387.394531 249.523438 388.53125 C 240.429688 393.078125 236.746094 404.136719 241.292969 413.230469 L 273.96875 478.617188 L 259.695312 507.199219 C 255.152344 516.289062 258.835938 527.347656 267.929688 531.894531 C 270.578125 533.199219 273.347656 533.835938 276.125 533.835938 C 282.878906 533.835938 289.386719 530.121094 292.625 523.660156 L 347.84375 413.230469 C 352.371094 404.136719 348.703125 393.097656 339.609375 388.53125 C 330.519531 383.984375 319.476562 387.671875 314.914062 396.765625 L 294.566406 437.457031 L 274.21875 396.765625 C 270.808594 389.945312 263.726562 386.171875 256.570312 386.625 Z M 256.570312 386.625 " fill-opacity="1" fill-rule="nonzero"/></g></svg>