<svg xmlns="http://www.w3.org/2000/svg" xmlns:xlink="http://www.w3.org/1999/xlink" width="1080" zoomAndPan="magnify" viewBox="0 0 810 809.999993" height="1080" preserveAspectRatio="xMidYMid meet" version="1.0"><rect x="-81" width="972" fill="#ffffff" y="-80.999999" height="971.999992" fill-opacity="1"/><rect x="-81" width="972" fill="#ffffff" y="-80.999999" height="971.999992" fill-opacity="1"/><path fill="#cb6ce6" d="M 318.085938 710.078125 C 297.382812 722.078125 293.449219 723.488281 273.988281 730.378906 C 269.28125 731.992188 262.15625 734.847656 276.675781 743.183594 L 374.144531 801.597656 C 383.457031 807.074219 394.210938 809.933594 404.796875 809.933594 L 404.867188 810 C 415.585938 810 426.175781 807.109375 435.484375 801.664062 L 727.285156 631.027344 C 746.242188 619.835938 757.9375 599.164062 757.9375 577.082031 L 757.9375 236.007812 C 757.9375 213.757812 746.277344 193.089844 727.285156 182.066406 L 435.484375 11.257812 C 417.167969 0.707031 392.664062 0.707031 374.179688 11.257812 L 82.714844 181.898438 C 63.792969 192.953125 52.09375 213.757812 52.09375 235.839844 L 52.09375 576.914062 C 52.09375 599.164062 63.757812 619.835938 82.714844 630.859375 L 159.175781 675.527344 C 196.148438 694.113281 209.390625 694.113281 226.296875 694.113281 C 281.113281 694.113281 312.707031 660.503906 312.707031 601.921875 L 312.707031 265.015625 C 312.707031 260.242188 308.773438 256.542969 304.171875 256.542969 L 267.199219 256.542969 C 262.460938 256.542969 258.664062 260.207031 258.664062 265.015625 L 258.664062 601.753906 C 258.664062 627.835938 232.109375 653.613281 188.652344 631.699219 L 108.726562 584.949219 C 105.9375 583.503906 104.191406 580.308594 104.191406 577.082031 L 104.191406 236.007812 C 104.191406 232.683594 105.9375 229.457031 108.761719 227.84375 L 400.226562 57.203125 C 402.882812 55.589844 406.546875 55.589844 409.234375 57.203125 L 700.867188 227.675781 C 703.691406 229.421875 705.4375 232.480469 705.4375 235.839844 L 705.4375 577.082031 C 705.4375 580.242188 703.726562 583.46875 701.035156 585.082031 L 409.234375 755.71875 C 406.714844 757.332031 402.917969 757.332031 400.226562 755.71875 L 325.34375 710.75 C 323.125 709.304688 320.304688 708.800781 318.085938 710.078125 Z M 318.085938 710.078125 " fill-opacity="1" fill-rule="nonzero"/><path fill="#cb6ce6" d="M 494.871094 523.273438 C 417.636719 523.273438 400.699219 503.578125 395.050781 464.691406 C 394.414062 460.523438 390.949219 457.5 386.683594 457.5 L 348.9375 457.5 C 344.199219 457.5 340.570312 461.332031 340.570312 465.96875 C 340.570312 515.746094 367.257812 575.132812 495.042969 575.132812 C 587.265625 574.964844 640.402344 538.027344 640.402344 473.664062 L 640.304688 473.699219 C 640.304688 409.839844 597.652344 392.867188 508.082031 380.867188 C 417.402344 368.703125 408.261719 362.449219 408.261719 341.007812 C 408.261719 323.261719 416.023438 299.566406 483.144531 299.566406 C 543.035156 299.566406 565.152344 312.671875 574.292969 353.644531 C 575.066406 357.507812 578.5625 360.367188 582.527344 360.367188 L 620.441406 360.367188 C 622.792969 360.367188 625.011719 359.425781 626.589844 357.644531 C 628.171875 355.863281 628.941406 353.476562 628.808594 351.089844 C 622.960938 280.507812 576.679688 247.707031 483.144531 247.707031 C 399.890625 247.707031 350.28125 283.265625 350.28125 342.921875 C 350.28125 407.589844 399.722656 425.535156 479.511719 433.5 C 575.101562 442.980469 582.496094 457.195312 582.496094 476.253906 C 582.5625 509.222656 556.34375 523.273438 494.871094 523.273438 Z M 494.871094 523.273438 " fill-opacity="1" fill-rule="nonzero"/></svg>