<svg xmlns="http://www.w3.org/2000/svg" xmlns:xlink="http://www.w3.org/1999/xlink" width="1080" zoomAndPan="magnify" viewBox="0 0 810 809.999993" height="1080" preserveAspectRatio="xMidYMid meet" version="1.0"><defs><g/><clipPath id="59bcdc51d0"><path d="M 108 35.839844 L 249 35.839844 L 249 177 L 108 177 Z M 108 35.839844 " clip-rule="nonzero"/></clipPath><clipPath id="353215589b"><path d="M 73.113281 199 L 284 199 L 284 364 L 73.113281 364 Z M 73.113281 199 " clip-rule="nonzero"/></clipPath></defs><rect x="-81" width="972" fill="#ffffff" y="-80.999999" height="971.999992" fill-opacity="1"/><rect x="-81" width="972" fill="#ffffff" y="-80.999999" height="971.999992" fill-opacity="1"/><path fill="#cb6ce6" d="M 693.574219 235.226562 L 611.871094 316.929688 L 530.167969 235.226562 C 525.738281 230.800781 528.878906 223.234375 535.132812 223.234375 L 588.445312 223.234375 L 588.445312 176.386719 C 588.445312 150.5 567.480469 129.539062 541.597656 129.539062 L 342.492188 129.539062 C 336.027344 129.539062 330.78125 124.289062 330.78125 117.824219 L 330.78125 94.402344 C 330.78125 87.9375 336.027344 82.6875 342.492188 82.6875 L 541.597656 82.6875 C 593.339844 82.6875 635.292969 124.640625 635.292969 176.386719 L 635.292969 223.234375 L 688.605469 223.234375 C 694.859375 223.234375 698 230.800781 693.574219 235.226562 Z M 693.574219 235.226562 " fill-opacity="1" fill-rule="nonzero"/><path fill="#cb6ce6" d="M 459.613281 598.019531 C 466.078125 598.019531 471.324219 603.265625 471.324219 609.730469 L 471.324219 633.15625 C 471.324219 639.621094 466.078125 644.867188 459.613281 644.867188 L 260.507812 644.867188 C 208.765625 644.867188 166.8125 602.914062 166.8125 551.171875 L 166.8125 504.324219 L 113.5 504.324219 C 107.242188 504.324219 104.105469 496.757812 108.53125 492.328125 L 190.234375 410.625 L 271.9375 492.328125 C 276.367188 496.757812 273.226562 504.324219 266.972656 504.324219 L 213.660156 504.324219 L 213.660156 551.171875 C 213.660156 577.054688 234.625 598.019531 260.507812 598.019531 Z M 459.613281 598.019531 " fill-opacity="1" fill-rule="nonzero"/><g clip-path="url(#59bcdc51d0)"><path fill="#cb6ce6" d="M 248.796875 106.113281 C 248.796875 144.925781 217.335938 176.386719 178.523438 176.386719 C 139.710938 176.386719 108.25 144.925781 108.25 106.113281 C 108.25 67.300781 139.710938 35.839844 178.523438 35.839844 C 217.335938 35.839844 248.796875 67.300781 248.796875 106.113281 Z M 248.796875 106.113281 " fill-opacity="1" fill-rule="nonzero"/></g><g clip-path="url(#353215589b)"><path fill="#cb6ce6" d="M 283.933594 363.777344 L 73.113281 363.777344 L 73.113281 305.21875 C 73.113281 247.007812 120.316406 199.808594 178.523438 199.808594 C 236.734375 199.808594 283.933594 247.007812 283.933594 305.21875 Z M 283.933594 363.777344 " fill-opacity="1" fill-rule="nonzero"/></g><path fill="#cb6ce6" d="M 693.855469 434.050781 C 693.855469 472.863281 662.394531 504.324219 623.582031 504.324219 C 584.769531 504.324219 553.308594 472.863281 553.308594 434.050781 C 553.308594 395.238281 584.769531 363.777344 623.582031 363.777344 C 662.394531 363.777344 693.855469 395.238281 693.855469 434.050781 Z M 693.855469 434.050781 " fill-opacity="1" fill-rule="nonzero"/><path fill="#cb6ce6" d="M 728.988281 691.714844 L 518.171875 691.714844 L 518.171875 633.15625 C 518.171875 574.945312 565.371094 527.746094 623.582031 527.746094 C 681.789062 527.746094 728.988281 574.945312 728.988281 633.15625 Z M 728.988281 691.714844 " fill-opacity="1" fill-rule="nonzero"/><g fill="#cb6ce6" fill-opacity="1"><g transform="translate(275.98121, 767.925629)"><g><path d="M 28.75 -55.6875 C 32.738281 -55.6875 36.148438 -54.953125 38.984375 -53.484375 C 41.816406 -52.023438 43.953125 -49.984375 45.390625 -47.359375 C 46.835938 -44.734375 47.5625 -41.679688 47.5625 -38.203125 C 47.5625 -34.722656 46.835938 -31.675781 45.390625 -29.0625 C 43.953125 -26.445312 41.816406 -24.40625 38.984375 -22.9375 C 36.148438 -21.476562 32.738281 -20.75 28.75 -20.75 L 18.25 -20.75 L 18.25 0 L 7.234375 0 L 7.234375 -55.6875 Z M 27.3125 -29.484375 C 33.425781 -29.484375 36.484375 -32.390625 36.484375 -38.203125 C 36.484375 -44.035156 33.425781 -46.953125 27.3125 -46.953125 L 18.25 -46.953125 L 18.25 -29.484375 Z M 27.3125 -29.484375 "/></g></g><g transform="translate(326.86402, 767.925629)"><g><path d="M 41.515625 -18.625 L 14.515625 -18.625 C 14.816406 -14.96875 15.851562 -12.304688 17.625 -10.640625 C 19.40625 -8.984375 21.832031 -8.15625 24.90625 -8.15625 C 27.320312 -8.15625 29.273438 -8.601562 30.765625 -9.5 C 32.265625 -10.40625 33.472656 -11.769531 34.390625 -13.59375 L 35.1875 -13.59375 L 42.203125 -9.109375 C 40.828125 -6.160156 38.753906 -3.769531 35.984375 -1.9375 C 33.222656 -0.113281 29.53125 0.796875 24.90625 0.796875 C 20.5625 0.796875 16.804688 -0.0234375 13.640625 -1.671875 C 10.484375 -3.328125 8.046875 -5.785156 6.328125 -9.046875 C 4.617188 -12.304688 3.765625 -16.285156 3.765625 -20.984375 C 3.765625 -25.753906 4.664062 -29.773438 6.46875 -33.046875 C 8.269531 -36.328125 10.707031 -38.773438 13.78125 -40.390625 C 16.851562 -42.003906 20.304688 -42.8125 24.140625 -42.8125 C 30.085938 -42.8125 34.640625 -41.234375 37.796875 -38.078125 C 40.960938 -34.929688 42.546875 -30.3125 42.546875 -24.21875 C 42.546875 -22.007812 42.46875 -20.296875 42.3125 -19.078125 Z M 32.453125 -25.4375 C 32.347656 -28.632812 31.601562 -30.960938 30.21875 -32.421875 C 28.832031 -33.890625 26.804688 -34.625 24.140625 -34.625 C 18.816406 -34.625 15.679688 -31.5625 14.734375 -25.4375 Z M 32.453125 -25.4375 "/></g></g><g transform="translate(372.529056, 767.925629)"><g><path d="M 41.515625 -18.625 L 14.515625 -18.625 C 14.816406 -14.96875 15.851562 -12.304688 17.625 -10.640625 C 19.40625 -8.984375 21.832031 -8.15625 24.90625 -8.15625 C 27.320312 -8.15625 29.273438 -8.601562 30.765625 -9.5 C 32.265625 -10.40625 33.472656 -11.769531 34.390625 -13.59375 L 35.1875 -13.59375 L 42.203125 -9.109375 C 40.828125 -6.160156 38.753906 -3.769531 35.984375 -1.9375 C 33.222656 -0.113281 29.53125 0.796875 24.90625 0.796875 C 20.5625 0.796875 16.804688 -0.0234375 13.640625 -1.671875 C 10.484375 -3.328125 8.046875 -5.785156 6.328125 -9.046875 C 4.617188 -12.304688 3.765625 -16.285156 3.765625 -20.984375 C 3.765625 -25.753906 4.664062 -29.773438 6.46875 -33.046875 C 8.269531 -36.328125 10.707031 -38.773438 13.78125 -40.390625 C 16.851562 -42.003906 20.304688 -42.8125 24.140625 -42.8125 C 30.085938 -42.8125 34.640625 -41.234375 37.796875 -38.078125 C 40.960938 -34.929688 42.546875 -30.3125 42.546875 -24.21875 C 42.546875 -22.007812 42.46875 -20.296875 42.3125 -19.078125 Z M 32.453125 -25.4375 C 32.347656 -28.632812 31.601562 -30.960938 30.21875 -32.421875 C 28.832031 -33.890625 26.804688 -34.625 24.140625 -34.625 C 18.816406 -34.625 15.679688 -31.5625 14.734375 -25.4375 Z M 32.453125 -25.4375 "/></g></g><g transform="translate(418.194093, 767.925629)"><g><path d="M 6.0625 0 L 6.0625 -42.015625 L 16.296875 -42.015625 L 16.296875 -35.765625 L 17.09375 -35.609375 C 18.113281 -37.941406 19.445312 -39.65625 21.09375 -40.75 C 22.75 -41.84375 24.757812 -42.390625 27.125 -42.390625 C 29.507812 -42.390625 31.320312 -41.984375 32.5625 -41.171875 L 30.78125 -32.0625 L 29.96875 -31.921875 C 29.289062 -32.191406 28.632812 -32.390625 28 -32.515625 C 27.363281 -32.648438 26.585938 -32.71875 25.671875 -32.71875 C 22.722656 -32.71875 20.472656 -31.679688 18.921875 -29.609375 C 17.378906 -27.546875 16.609375 -24.226562 16.609375 -19.65625 L 16.609375 0 Z M 6.0625 0 "/></g></g><g transform="translate(451.138427, 767.925629)"><g><path d="M 10.734375 0.34375 C 9.390625 0.34375 8.203125 0.0703125 7.171875 -0.46875 C 6.148438 -1.019531 5.363281 -1.773438 4.8125 -2.734375 C 4.269531 -3.703125 4 -4.796875 4 -6.015625 C 4 -7.234375 4.269531 -8.320312 4.8125 -9.28125 C 5.363281 -10.25 6.148438 -11.015625 7.171875 -11.578125 C 8.203125 -12.140625 9.390625 -12.421875 10.734375 -12.421875 C 12.109375 -12.421875 13.304688 -12.144531 14.328125 -11.59375 C 15.359375 -11.050781 16.144531 -10.296875 16.6875 -9.328125 C 17.238281 -8.367188 17.515625 -7.28125 17.515625 -6.0625 C 17.515625 -4.207031 16.898438 -2.675781 15.671875 -1.46875 C 14.441406 -0.257812 12.796875 0.34375 10.734375 0.34375 Z M 10.734375 0.34375 "/></g></g><g transform="translate(472.656981, 767.925629)"><g><path d="M 11.3125 -47.03125 C 9.40625 -47.03125 7.851562 -47.609375 6.65625 -48.765625 C 5.46875 -49.921875 4.875 -51.414062 4.875 -53.25 C 4.875 -55.050781 5.46875 -56.53125 6.65625 -57.6875 C 7.851562 -58.84375 9.40625 -59.421875 11.3125 -59.421875 C 12.582031 -59.421875 13.710938 -59.148438 14.703125 -58.609375 C 15.691406 -58.078125 16.457031 -57.347656 17 -56.421875 C 17.550781 -55.492188 17.828125 -54.4375 17.828125 -53.25 C 17.828125 -52.050781 17.550781 -50.984375 17 -50.046875 C 16.457031 -49.109375 15.691406 -48.367188 14.703125 -47.828125 C 13.710938 -47.296875 12.582031 -47.03125 11.3125 -47.03125 Z M 3.28125 17.828125 C 0.175781 17.828125 -2.3125 17.421875 -4.1875 16.609375 L -2.890625 8.296875 L -2.171875 8.078125 C -1.148438 8.554688 0.0390625 8.796875 1.40625 8.796875 C 4.507812 8.796875 6.0625 6.96875 6.0625 3.3125 L 6.0625 -42.015625 L 16.609375 -42.015625 L 16.609375 3.015625 C 16.609375 7.910156 15.476562 11.601562 13.21875 14.09375 C 10.957031 16.582031 7.644531 17.828125 3.28125 17.828125 Z M 3.28125 17.828125 "/></g></g><g transform="translate(495.280027, 767.925629)"><g><path d="M 19.65625 0.796875 C 16.78125 0.796875 14.148438 0.460938 11.765625 -0.203125 C 9.378906 -0.878906 7.34375 -1.804688 5.65625 -2.984375 C 3.96875 -4.171875 2.71875 -5.523438 1.90625 -7.046875 L 7.765625 -13.375 L 8.5625 -13.375 C 9.96875 -11.488281 11.617188 -10.078125 13.515625 -9.140625 C 15.421875 -8.203125 17.492188 -7.734375 19.734375 -7.734375 C 21.785156 -7.734375 23.332031 -8.097656 24.375 -8.828125 C 25.414062 -9.566406 25.9375 -10.625 25.9375 -12 C 25.9375 -13.0625 25.5625 -13.953125 24.8125 -14.671875 C 24.0625 -15.398438 22.847656 -15.96875 21.171875 -16.375 L 15.609375 -17.703125 C 11.453125 -18.703125 8.414062 -20.222656 6.5 -22.265625 C 4.582031 -24.304688 3.625 -26.898438 3.625 -30.046875 C 3.625 -32.660156 4.289062 -34.929688 5.625 -36.859375 C 6.957031 -38.796875 8.832031 -40.269531 11.25 -41.28125 C 13.675781 -42.300781 16.503906 -42.8125 19.734375 -42.8125 C 23.515625 -42.8125 26.648438 -42.265625 29.140625 -41.171875 C 31.628906 -40.078125 33.570312 -38.617188 34.96875 -36.796875 L 29.328125 -30.703125 L 28.5625 -30.703125 C 27.394531 -32.015625 26.082031 -32.972656 24.625 -33.578125 C 23.164062 -34.191406 21.535156 -34.5 19.734375 -34.5 C 15.566406 -34.5 13.484375 -33.207031 13.484375 -30.625 C 13.484375 -29.53125 13.867188 -28.640625 14.640625 -27.953125 C 15.421875 -27.265625 16.785156 -26.707031 18.734375 -26.28125 L 23.921875 -25.140625 C 28.179688 -24.222656 31.296875 -22.753906 33.265625 -20.734375 C 35.234375 -18.710938 36.21875 -16.003906 36.21875 -12.609375 C 36.21875 -9.941406 35.554688 -7.59375 34.234375 -5.5625 C 32.921875 -3.53125 31.019531 -1.960938 28.53125 -0.859375 C 26.039062 0.242188 23.082031 0.796875 19.65625 0.796875 Z M 19.65625 0.796875 "/></g></g></g></svg>