<svg xmlns="http://www.w3.org/2000/svg" xmlns:xlink="http://www.w3.org/1999/xlink" width="1080" zoomAndPan="magnify" viewBox="0 0 810 809.999993" height="1080" preserveAspectRatio="xMidYMid meet" version="1.0"><rect x="-81" width="972" fill="#ffffff" y="-80.999999" height="971.999992" fill-opacity="1"/><rect x="-81" width="972" fill="#ffffff" y="-80.999999" height="971.999992" fill-opacity="1"/><path fill="#cb6ce6" d="M 687.179688 489.796875 C 682.804688 472.128906 666.984375 459 648 459 L 634.5 459 L 634.5 316.039062 C 634.5 308.867188 631.703125 302.117188 626.640625 297.054688 L 539.945312 210.359375 C 534.882812 205.296875 528.132812 202.5 520.960938 202.5 L 216 202.5 C 193.640625 202.5 175.5 220.640625 175.5 243 L 175.5 459 L 162 459 C 140.695312 459 123.398438 475.558594 121.816406 496.492188 C 66.867188 484.257812 27 435.746094 27 378 C 27 321.679688 66.816406 271.847656 121.605469 259.558594 C 132.046875 257.1875 139.375 246.21875 137.003906 235.722656 C 135.050781 226.230469 134.578125 216.421875 135.472656 206.5625 C 139.375 163.425781 173.441406 128.039062 216.367188 122.34375 C 233.347656 120.183594 250.277344 122.292969 265.78125 128.726562 C 275.378906 132.3125 286.292969 128.304688 290.933594 119.390625 C 321.574219 62.386719 380.792969 27 445.5 27 C 536.148438 27 611.347656 94.710938 620.578125 184.675781 C 621.738281 194.695312 629.910156 202.238281 639.984375 202.605469 C 677.582031 203.925781 712.96875 219.324219 739.546875 245.953125 C 767.546875 273.902344 783 311.238281 783 351 C 783 413.277344 744.292969 468.175781 687.179688 489.796875 Z M 540 283.5 L 540 248.589844 L 588.460938 297 L 553.5 297 C 546.0625 297 540 290.9375 540 283.5 Z M 553.5 324 L 607.5 324 L 607.5 459 L 202.5 459 L 202.5 243 C 202.5 235.566406 208.5625 229.5 216 229.5 L 513 229.449219 L 513 283.5 C 513 305.859375 531.140625 324 553.5 324 Z M 661.5 688.5 C 661.5 695.933594 655.433594 702 648 702 L 162 702 C 154.5625 702 148.5 695.933594 148.5 688.5 L 148.5 499.5 C 148.5 492.0625 154.5625 486 162 486 L 648 486 C 655.433594 486 661.5 492.0625 661.5 499.5 Z M 607.5 769.5 C 607.5 776.933594 601.433594 783 594 783 L 216 783 C 208.5625 783 202.5 776.933594 202.5 769.5 L 202.5 729 L 607.5 729 Z M 646.734375 175.921875 C 633.601562 75.253906 548.066406 0 445.5 0 C 372.882812 0 306.226562 38.65625 270.050781 101.460938 C 252.121094 95.082031 232.503906 93.023438 212.886719 95.554688 C 157.464844 102.886719 113.640625 148.554688 108.578125 204.082031 C 107.628906 214.3125 107.894531 224.597656 109.421875 234.773438 C 45.667969 252.070312 0 311.292969 0 378 C 0 450.511719 51.46875 511.207031 121.5 523.96875 L 121.5 688.5 C 121.5 710.859375 139.640625 729 162 729 L 175.5 729 L 175.5 769.5 C 175.5 791.859375 193.640625 810 216 810 L 594 810 C 616.359375 810 634.5 791.859375 634.5 769.5 L 634.5 729 L 648 729 C 670.359375 729 688.5 710.859375 688.5 688.5 L 688.5 517.851562 C 760.535156 494.699219 810 427.570312 810 351 C 810 304.066406 791.753906 259.929688 758.6875 226.8125 C 728.578125 196.753906 688.972656 178.769531 646.734375 175.921875 " fill-opacity="1" fill-rule="nonzero"/><path fill="#cb6ce6" d="M 445.5 526.5 C 438.0625 526.5 432 532.5625 432 540 L 432 580.5 L 378 580.5 L 378 540 C 378 532.5625 371.933594 526.5 364.5 526.5 C 357.0625 526.5 351 532.5625 351 540 L 351 648 C 351 655.433594 357.0625 661.5 364.5 661.5 C 371.933594 661.5 378 655.433594 378 648 L 378 607.5 L 432 607.5 L 432 648 C 432 655.433594 438.0625 661.5 445.5 661.5 C 452.933594 661.5 459 655.433594 459 648 L 459 540 C 459 532.5625 452.933594 526.5 445.5 526.5 " fill-opacity="1" fill-rule="nonzero"/><path fill="#cb6ce6" d="M 276.75 594 L 256.5 594 L 256.5 553.5 L 276.75 553.5 C 287.929688 553.5 297 562.570312 297 573.75 C 297 584.929688 287.929688 594 276.75 594 Z M 276.75 526.5 L 243 526.5 C 235.5625 526.5 229.5 532.5625 229.5 540 L 229.5 648 C 229.5 655.433594 235.5625 661.5 243 661.5 C 250.433594 661.5 256.5 655.433594 256.5 648 L 256.5 621 L 276.75 621 C 302.800781 621 324 599.800781 324 573.75 C 324 547.699219 302.800781 526.5 276.75 526.5 " fill-opacity="1" fill-rule="nonzero"/><path fill="#cb6ce6" d="M 533.25 594 L 513 594 L 513 553.5 L 533.25 553.5 C 544.429688 553.5 553.5 562.570312 553.5 573.75 C 553.5 584.929688 544.429688 594 533.25 594 Z M 533.25 526.5 L 499.5 526.5 C 492.0625 526.5 486 532.5625 486 540 L 486 648 C 486 655.433594 492.0625 661.5 499.5 661.5 C 506.933594 661.5 513 655.433594 513 648 L 513 621 L 533.25 621 C 559.300781 621 580.5 599.800781 580.5 573.75 C 580.5 547.699219 559.300781 526.5 533.25 526.5 " fill-opacity="1" fill-rule="nonzero"/></svg>