<svg xmlns="http://www.w3.org/2000/svg" xmlns:xlink="http://www.w3.org/1999/xlink" width="1080" zoomAndPan="magnify" viewBox="0 0 810 809.999993" height="1080" preserveAspectRatio="xMidYMid meet" version="1.0"><defs><g/><clipPath id="ecf16b6ab3"><path d="M 81 14.335938 L 741 14.335938 L 741 666 L 81 666 Z M 81 14.335938 " clip-rule="nonzero"/></clipPath></defs><rect x="-81" width="972" fill="#ffffff" y="-80.999999" height="971.999992" fill-opacity="1"/><rect x="-81" width="972" fill="#ffffff" y="-80.999999" height="971.999992" fill-opacity="1"/><g clip-path="url(#ecf16b6ab3)"><path fill="#cb6ce6" d="M 410.902344 14.128906 C 229.15625 14.128906 81.269531 162.015625 81.269531 343.761719 C 81.269531 500.25 190.636719 631.695312 337.332031 665.152344 C 338.15625 665.339844 338.988281 665.488281 339.824219 665.59375 C 340.664062 665.699219 341.503906 665.765625 342.347656 665.789062 C 343.191406 665.8125 344.035156 665.792969 344.878906 665.734375 C 345.722656 665.675781 346.558594 665.574219 347.394531 665.433594 C 348.226562 665.292969 349.050781 665.109375 349.863281 664.886719 C 350.679688 664.664062 351.480469 664.402344 352.273438 664.101562 C 353.0625 663.800781 353.832031 663.460938 354.589844 663.082031 C 355.34375 662.707031 356.082031 662.292969 356.796875 661.84375 C 357.511719 661.394531 358.203125 660.910156 358.871094 660.390625 C 359.539062 659.875 360.179688 659.324219 360.792969 658.746094 C 361.40625 658.164062 361.992188 657.554688 362.542969 656.917969 C 363.097656 656.28125 363.621094 655.617188 364.109375 654.929688 C 364.597656 654.238281 365.050781 653.527344 365.46875 652.792969 C 365.890625 652.058594 366.269531 651.308594 366.617188 650.535156 C 366.960938 649.765625 367.265625 648.980469 367.535156 648.179688 C 367.804688 647.378906 368.03125 646.566406 368.21875 645.742188 C 368.40625 644.917969 368.554688 644.085938 368.660156 643.246094 C 368.765625 642.410156 368.832031 641.566406 368.855469 640.722656 C 368.878906 639.878906 368.859375 639.035156 368.800781 638.191406 C 368.742188 637.347656 368.640625 636.511719 368.5 635.675781 C 368.355469 634.84375 368.175781 634.019531 367.953125 633.203125 C 367.726562 632.390625 367.464844 631.585938 367.164062 630.796875 C 366.863281 630.007812 366.523438 629.234375 366.144531 628.480469 C 365.769531 627.722656 365.355469 626.988281 364.90625 626.273438 C 364.453125 625.554688 363.972656 624.863281 363.453125 624.195312 C 362.933594 623.527344 362.386719 622.886719 361.804688 622.273438 C 361.222656 621.660156 360.613281 621.078125 359.976562 620.523438 C 359.339844 619.96875 358.675781 619.445312 357.984375 618.957031 C 357.296875 618.46875 356.582031 618.015625 355.851562 617.597656 C 355.117188 617.179688 354.363281 616.796875 353.589844 616.453125 C 352.820312 616.105469 352.035156 615.800781 351.230469 615.535156 C 350.429688 615.265625 349.617188 615.039062 348.792969 614.851562 C 225.199219 586.664062 132.867188 476.242188 132.867188 343.761719 C 132.867188 189.898438 257.039062 65.726562 410.902344 65.726562 C 564.765625 65.726562 688.949219 189.898438 688.949219 343.761719 C 688.949219 447.183594 633.628906 536.300781 537.53125 588.332031 C 529.277344 592.796875 516.113281 595.230469 503.277344 594.308594 C 490.441406 593.390625 478.199219 588.90625 472.742188 584.964844 C 450.089844 568.605469 436.699219 542.421875 436.699219 514.480469 L 436.699219 489.050781 L 437.195312 489.050781 C 446.785156 489.050781 454.507812 481.328125 454.507812 471.738281 L 454.507812 446.890625 C 454.507812 444.597656 454.058594 442.414062 453.257812 440.414062 C 456.097656 438.632812 458.816406 436.675781 461.414062 434.550781 C 464.007812 432.425781 466.460938 430.140625 468.765625 427.707031 C 471.074219 425.269531 473.21875 422.699219 475.199219 419.992188 C 477.183594 417.285156 478.984375 414.464844 480.613281 411.527344 C 482.238281 408.59375 483.671875 405.570312 484.914062 402.453125 C 486.160156 399.335938 487.203125 396.15625 488.042969 392.90625 C 488.886719 389.660156 489.519531 386.371094 489.945312 383.042969 C 490.371094 379.714844 490.589844 376.375 490.59375 373.019531 L 490.011719 373.019531 C 490.332031 373.019531 490.59375 372.757812 490.59375 372.4375 L 490.59375 269.761719 L 493.1875 269.761719 C 502.863281 269.761719 510.65625 261.972656 510.65625 252.292969 C 510.65625 242.617188 502.863281 234.824219 493.1875 234.824219 L 465.917969 234.824219 L 465.917969 146.007812 C 465.917969 136.414062 458.195312 128.695312 448.605469 128.695312 C 439.015625 128.695312 431.292969 136.414062 431.292969 146.007812 L 431.292969 234.824219 L 390.519531 234.824219 L 390.519531 146.007812 C 390.519531 136.414062 382.796875 128.695312 373.207031 128.695312 C 363.617188 128.695312 355.894531 136.414062 355.894531 146.007812 L 355.894531 234.824219 L 328.625 234.824219 C 318.949219 234.824219 311.15625 242.617188 311.15625 252.292969 C 311.15625 261.972656 318.949219 269.761719 328.625 269.761719 L 331.21875 269.761719 L 331.21875 372.4375 C 331.21875 372.757812 331.480469 373.019531 331.800781 373.019531 L 331.21875 373.019531 C 331.222656 376.375 331.4375 379.714844 331.867188 383.042969 C 332.292969 386.371094 332.925781 389.660156 333.769531 392.90625 C 334.609375 396.15625 335.652344 399.335938 336.894531 402.453125 C 338.140625 405.570312 339.574219 408.59375 341.199219 411.527344 C 342.824219 414.464844 344.628906 417.285156 346.613281 419.992188 C 348.59375 422.699219 350.738281 425.269531 353.046875 427.707031 C 355.351562 430.144531 357.804688 432.425781 360.398438 434.550781 C 362.996094 436.675781 365.714844 438.632812 368.554688 440.414062 C 367.753906 442.414062 367.304688 444.597656 367.304688 446.890625 L 367.304688 471.738281 C 367.304688 481.328125 375.027344 489.050781 384.617188 489.050781 L 385.105469 489.050781 L 385.105469 514.480469 C 385.105469 558.941406 406.492188 600.753906 442.539062 626.785156 C 458.933594 638.628906 478.800781 644.289062 499.59375 645.777344 C 520.390625 647.265625 542.375 644.382812 562.09375 633.707031 C 672.925781 573.699219 740.542969 465.925781 740.542969 343.761719 C 740.542969 162.015625 592.648438 14.128906 410.902344 14.128906 Z M 421.488281 288.71875 L 422.644531 289.296875 L 405.835938 324.65625 L 442.929688 343.203125 L 380.914062 391.207031 L 414.53125 344.945312 L 378.882812 331.324219 Z M 421.488281 288.71875 " fill-opacity="1" fill-rule="nonzero"/></g><g fill="#cb6ce6" fill-opacity="1"><g transform="translate(228.28997, 758.624982)"><g><path d="M 24.6875 0.796875 C 20.820312 0.796875 17.382812 0.320312 14.375 -0.625 C 11.363281 -1.582031 8.851562 -2.832031 6.84375 -4.375 C 4.84375 -5.925781 3.3125 -7.628906 2.25 -9.484375 L 8.296875 -16.875 L 9.25 -16.875 C 10.925781 -14.382812 13.050781 -12.398438 15.625 -10.921875 C 18.207031 -9.453125 21.226562 -8.71875 24.6875 -8.71875 C 27.625 -8.71875 29.84375 -9.335938 31.34375 -10.578125 C 32.84375 -11.828125 33.59375 -13.546875 33.59375 -15.734375 C 33.59375 -17.046875 33.347656 -18.144531 32.859375 -19.03125 C 32.378906 -19.925781 31.582031 -20.691406 30.46875 -21.328125 C 29.351562 -21.960938 27.84375 -22.507812 25.9375 -22.96875 L 18.78125 -24.609375 C 13.78125 -25.742188 10.050781 -27.640625 7.59375 -30.296875 C 5.144531 -32.953125 3.921875 -36.398438 3.921875 -40.640625 C 3.921875 -43.785156 4.707031 -46.550781 6.28125 -48.9375 C 7.851562 -51.320312 10.144531 -53.175781 13.15625 -54.5 C 16.164062 -55.820312 19.765625 -56.484375 23.953125 -56.484375 C 28.242188 -56.484375 31.921875 -55.914062 34.984375 -54.78125 C 38.046875 -53.65625 40.628906 -51.925781 42.734375 -49.59375 L 37.28125 -42.125 L 36.328125 -42.125 C 34.753906 -43.769531 32.953125 -45.003906 30.921875 -45.828125 C 28.890625 -46.660156 26.566406 -47.078125 23.953125 -47.078125 C 20.929688 -47.078125 18.632812 -46.539062 17.0625 -45.46875 C 15.488281 -44.40625 14.703125 -42.9375 14.703125 -41.0625 C 14.703125 -39.300781 15.253906 -37.898438 16.359375 -36.859375 C 17.460938 -35.828125 19.375 -35.019531 22.09375 -34.4375 L 29.40625 -32.90625 C 34.8125 -31.757812 38.734375 -29.820312 41.171875 -27.09375 C 43.609375 -24.363281 44.828125 -20.804688 44.828125 -16.421875 C 44.828125 -12.941406 44.078125 -9.910156 42.578125 -7.328125 C 41.078125 -4.753906 38.816406 -2.753906 35.796875 -1.328125 C 32.773438 0.0859375 29.070312 0.796875 24.6875 0.796875 Z M 24.6875 0.796875 "/></g></g><g transform="translate(276.125905, 758.624982)"><g><path d="M 24.40625 0.796875 C 20.300781 0.796875 16.691406 -0.046875 13.578125 -1.734375 C 10.460938 -3.421875 8.046875 -5.894531 6.328125 -9.15625 C 4.617188 -12.414062 3.765625 -16.359375 3.765625 -20.984375 C 3.765625 -25.609375 4.617188 -29.554688 6.328125 -32.828125 C 8.046875 -36.109375 10.460938 -38.59375 13.578125 -40.28125 C 16.691406 -41.96875 20.300781 -42.8125 24.40625 -42.8125 C 28.519531 -42.8125 32.132812 -41.96875 35.25 -40.28125 C 38.363281 -38.59375 40.78125 -36.109375 42.5 -32.828125 C 44.226562 -29.554688 45.09375 -25.609375 45.09375 -20.984375 C 45.09375 -16.359375 44.226562 -12.414062 42.5 -9.15625 C 40.78125 -5.894531 38.363281 -3.421875 35.25 -1.734375 C 32.132812 -0.046875 28.519531 0.796875 24.40625 0.796875 Z M 24.40625 -8.15625 C 30.9375 -8.15625 34.203125 -12.429688 34.203125 -20.984375 C 34.203125 -25.429688 33.363281 -28.6875 31.6875 -30.75 C 30.007812 -32.820312 27.582031 -33.859375 24.40625 -33.859375 C 17.882812 -33.859375 14.625 -29.566406 14.625 -20.984375 C 14.625 -12.429688 17.882812 -8.15625 24.40625 -8.15625 Z M 24.40625 -8.15625 "/></g></g><g transform="translate(324.952074, 758.624982)"><g><path d="M 24.484375 0.796875 C 20.421875 0.796875 16.828125 -0.046875 13.703125 -1.734375 C 10.585938 -3.421875 8.148438 -5.898438 6.390625 -9.171875 C 4.640625 -12.453125 3.765625 -16.390625 3.765625 -20.984375 C 3.765625 -25.609375 4.640625 -29.554688 6.390625 -32.828125 C 8.148438 -36.109375 10.578125 -38.59375 13.671875 -40.28125 C 16.765625 -41.96875 20.304688 -42.8125 24.296875 -42.8125 C 33.160156 -42.8125 38.835938 -39.597656 41.328125 -33.171875 L 34.09375 -28 L 33.28125 -28 C 32.425781 -29.976562 31.304688 -31.445312 29.921875 -32.40625 C 28.535156 -33.375 26.660156 -33.859375 24.296875 -33.859375 C 21.253906 -33.859375 18.878906 -32.800781 17.171875 -30.6875 C 15.472656 -28.582031 14.625 -25.347656 14.625 -20.984375 C 14.625 -16.671875 15.488281 -13.453125 17.21875 -11.328125 C 18.945312 -9.210938 21.367188 -8.15625 24.484375 -8.15625 C 26.773438 -8.15625 28.710938 -8.769531 30.296875 -10 C 31.878906 -11.226562 33.015625 -13 33.703125 -15.3125 L 34.5 -15.390625 L 42.015625 -11.28125 C 40.941406 -7.71875 38.960938 -4.8125 36.078125 -2.5625 C 33.203125 -0.320312 29.335938 0.796875 24.484375 0.796875 Z M 24.484375 0.796875 "/></g></g><g transform="translate(368.255783, 758.624982)"><g><path d="M 6.0625 0 L 6.0625 -58.875 L 16.609375 -58.875 L 16.609375 -26.203125 L 17.640625 -26.203125 L 29.78125 -42.015625 L 40.484375 -42.015625 L 40.484375 -41.140625 L 26.203125 -22.703125 L 42.078125 -0.953125 L 42.078125 0 L 30.96875 0 L 17.640625 -17.703125 L 16.609375 -17.703125 L 16.609375 0 Z M 6.0625 0 "/></g></g><g transform="translate(410.416913, 758.624982)"><g><path d="M 41.515625 -18.625 L 14.515625 -18.625 C 14.816406 -14.96875 15.851562 -12.304688 17.625 -10.640625 C 19.40625 -8.984375 21.832031 -8.15625 24.90625 -8.15625 C 27.320312 -8.15625 29.273438 -8.601562 30.765625 -9.5 C 32.265625 -10.40625 33.472656 -11.769531 34.390625 -13.59375 L 35.1875 -13.59375 L 42.203125 -9.109375 C 40.828125 -6.160156 38.753906 -3.769531 35.984375 -1.9375 C 33.222656 -0.113281 29.53125 0.796875 24.90625 0.796875 C 20.5625 0.796875 16.804688 -0.0234375 13.640625 -1.671875 C 10.484375 -3.328125 8.046875 -5.785156 6.328125 -9.046875 C 4.617188 -12.304688 3.765625 -16.285156 3.765625 -20.984375 C 3.765625 -25.753906 4.664062 -29.773438 6.46875 -33.046875 C 8.269531 -36.328125 10.707031 -38.773438 13.78125 -40.390625 C 16.851562 -42.003906 20.304688 -42.8125 24.140625 -42.8125 C 30.085938 -42.8125 34.640625 -41.234375 37.796875 -38.078125 C 40.960938 -34.929688 42.546875 -30.3125 42.546875 -24.21875 C 42.546875 -22.007812 42.46875 -20.296875 42.3125 -19.078125 Z M 32.453125 -25.4375 C 32.347656 -28.632812 31.601562 -30.960938 30.21875 -32.421875 C 28.832031 -33.890625 26.804688 -34.625 24.140625 -34.625 C 18.816406 -34.625 15.679688 -31.5625 14.734375 -25.4375 Z M 32.453125 -25.4375 "/></g></g><g transform="translate(456.08195, 758.624982)"><g><path d="M 28.984375 -10.015625 L 31.71875 -2.203125 C 30.582031 -1.265625 29.148438 -0.53125 27.421875 0 C 25.691406 0.53125 23.738281 0.796875 21.5625 0.796875 C 17.007812 0.796875 13.550781 -0.4375 11.1875 -2.90625 C 8.832031 -5.382812 7.65625 -8.988281 7.65625 -13.71875 L 7.65625 -33.671875 L 1.25 -33.671875 L 1.25 -42.046875 L 7.65625 -42.046875 L 7.65625 -50.234375 L 18.203125 -51.953125 L 18.203125 -42.046875 L 30.125 -42.046875 L 30.125 -33.671875 L 18.203125 -33.671875 L 18.203125 -14.46875 C 18.203125 -12.382812 18.632812 -10.867188 19.5 -9.921875 C 20.363281 -8.972656 21.617188 -8.5 23.265625 -8.5 C 25.148438 -8.5 26.789062 -9.003906 28.1875 -10.015625 Z M 28.984375 -10.015625 "/></g></g><g transform="translate(488.721597, 758.624982)"><g><path d="M 10.734375 0.34375 C 9.390625 0.34375 8.203125 0.0703125 7.171875 -0.46875 C 6.148438 -1.019531 5.363281 -1.773438 4.8125 -2.734375 C 4.269531 -3.703125 4 -4.796875 4 -6.015625 C 4 -7.234375 4.269531 -8.320312 4.8125 -9.28125 C 5.363281 -10.25 6.148438 -11.015625 7.171875 -11.578125 C 8.203125 -12.140625 9.390625 -12.421875 10.734375 -12.421875 C 12.109375 -12.421875 13.304688 -12.144531 14.328125 -11.59375 C 15.359375 -11.050781 16.144531 -10.296875 16.6875 -9.328125 C 17.238281 -8.367188 17.515625 -7.28125 17.515625 -6.0625 C 17.515625 -4.207031 16.898438 -2.675781 15.671875 -1.46875 C 14.441406 -0.257812 12.796875 0.34375 10.734375 0.34375 Z M 10.734375 0.34375 "/></g></g><g transform="translate(510.24015, 758.624982)"><g><path d="M 11.3125 -47.03125 C 9.40625 -47.03125 7.851562 -47.609375 6.65625 -48.765625 C 5.46875 -49.921875 4.875 -51.414062 4.875 -53.25 C 4.875 -55.050781 5.46875 -56.53125 6.65625 -57.6875 C 7.851562 -58.84375 9.40625 -59.421875 11.3125 -59.421875 C 12.582031 -59.421875 13.710938 -59.148438 14.703125 -58.609375 C 15.691406 -58.078125 16.457031 -57.347656 17 -56.421875 C 17.550781 -55.492188 17.828125 -54.4375 17.828125 -53.25 C 17.828125 -52.050781 17.550781 -50.984375 17 -50.046875 C 16.457031 -49.109375 15.691406 -48.367188 14.703125 -47.828125 C 13.710938 -47.296875 12.582031 -47.03125 11.3125 -47.03125 Z M 6.0625 0 L 6.0625 -42.015625 L 16.609375 -42.015625 L 16.609375 0 Z M 6.0625 0 "/></g></g><g transform="translate(532.863196, 758.624982)"><g><path d="M 24.40625 0.796875 C 20.300781 0.796875 16.691406 -0.046875 13.578125 -1.734375 C 10.460938 -3.421875 8.046875 -5.894531 6.328125 -9.15625 C 4.617188 -12.414062 3.765625 -16.359375 3.765625 -20.984375 C 3.765625 -25.609375 4.617188 -29.554688 6.328125 -32.828125 C 8.046875 -36.109375 10.460938 -38.59375 13.578125 -40.28125 C 16.691406 -41.96875 20.300781 -42.8125 24.40625 -42.8125 C 28.519531 -42.8125 32.132812 -41.96875 35.25 -40.28125 C 38.363281 -38.59375 40.78125 -36.109375 42.5 -32.828125 C 44.226562 -29.554688 45.09375 -25.609375 45.09375 -20.984375 C 45.09375 -16.359375 44.226562 -12.414062 42.5 -9.15625 C 40.78125 -5.894531 38.363281 -3.421875 35.25 -1.734375 C 32.132812 -0.046875 28.519531 0.796875 24.40625 0.796875 Z M 24.40625 -8.15625 C 30.9375 -8.15625 34.203125 -12.429688 34.203125 -20.984375 C 34.203125 -25.429688 33.363281 -28.6875 31.6875 -30.75 C 30.007812 -32.820312 27.582031 -33.859375 24.40625 -33.859375 C 17.882812 -33.859375 14.625 -29.566406 14.625 -20.984375 C 14.625 -12.429688 17.882812 -8.15625 24.40625 -8.15625 Z M 24.40625 -8.15625 "/></g></g></g></svg>